<svg width="48" height="48" viewBox="0 0 48 48" fill="none" xmlns="http://www.w3.org/2000/svg">
<g id="fitness_center_black_24dp (1) 1" clip-path="url(#clip0_0_7153)">
<path id="Vector" d="M41.14 29.72L44 26.86L41.14 24L34 31.14L16.86 14L24 6.86L21.14 4L18.28 6.86L15.42 4L11.14 8.28L8.28 5.42L5.42 8.28L8.28 11.14L4 15.42L6.86 18.28L4 21.14L6.86 24L14 16.86L31.14 34L24 41.14L26.86 44L29.72 41.14L32.58 44L36.86 39.72L39.72 42.58L42.58 39.72L39.72 36.86L44 32.58L41.14 29.72Z" fill="black"/>
</g>
<defs>
<clipPath id="clip0_0_7153">
<rect width="48" height="48" fill="white"/>
</clipPath>
</defs>
</svg>
