<svg width="48" height="48" viewBox="0 0 48 48" fill="none" xmlns="http://www.w3.org/2000/svg">
<g id="pool_black_24dp 1" clip-path="url(#clip0_0_7173)">
<path id="Vector" d="M20 16.0003L13.5 22.5003C14.12 22.7403 14.62 23.0403 15.04 23.2803C15.78 23.7403 16.22 24.0003 17.34 24.0003C18.46 24.0003 18.9 23.7403 19.64 23.2803C20.56 22.7403 21.8 22.0003 24.02 22.0003C26.24 22.0003 27.48 22.7403 28.38 23.2803C29.12 23.7203 29.58 24.0003 30.68 24.0003C31.78 24.0003 32.24 23.7403 32.98 23.2803C33.22 23.1403 33.5 22.9803 33.8 22.8203L20.96 10.0003C17.86 6.90032 15 5.98032 10 6.00032V11.0003C13.64 10.9803 15.78 11.7803 18 14.0003L20 16.0003ZM44 33.0003H43.96H44ZM10.7 31.0003C11.8 31.0003 12.26 31.2803 13 31.7203C13.9 32.2603 15.14 33.0003 17.36 33.0003C19.58 33.0003 20.82 32.2603 21.72 31.7203C22.46 31.2603 22.9 31.0003 24.02 31.0003C25.12 31.0003 25.58 31.2803 26.32 31.7203C27.22 32.2603 28.46 33.0003 30.68 33.0003C32.9 33.0003 34.14 32.2603 35.04 31.7203C35.78 31.2603 36.22 31.0003 37.34 31.0003C38.44 31.0003 38.9 31.2803 39.64 31.7203C40.54 32.2603 41.76 32.9803 43.96 33.0003V29.0003C42.86 29.0003 42.4 28.7203 41.66 28.2803C40.76 27.7403 39.52 27.0003 37.3 27.0003C35.08 27.0003 33.84 27.7403 32.94 28.2803C32.2 28.7403 31.74 29.0003 30.64 29.0003C29.54 29.0003 29.08 28.7203 28.34 28.2803C27.44 27.7403 26.2 27.0003 23.98 27.0003C21.76 27.0003 20.52 27.7403 19.62 28.2803C18.88 28.7403 18.44 29.0003 17.32 29.0003C16.22 29.0003 15.76 28.7203 15.02 28.2803C14.12 27.7403 12.88 27.0003 10.66 27.0003C8.44 27.0003 7.2 27.7403 6.3 28.2803C5.56 28.7403 5.12 29.0003 4 29.0003V33.0003C6.22 33.0003 7.46 32.2603 8.4 31.7203C9.14 31.2603 9.6 31.0003 10.7 31.0003ZM37.34 36.0003C35.12 36.0003 33.88 36.7403 32.98 37.2803C32.24 37.7403 31.78 38.0003 30.68 38.0003C29.58 38.0003 29.12 37.7203 28.38 37.2803C27.48 36.7403 26.24 36.0003 24.02 36.0003C21.8 36.0003 20.56 36.7403 19.64 37.2803C18.9 37.7403 18.46 38.0003 17.34 38.0003C16.22 38.0003 15.78 37.7403 15.04 37.2803C14.14 36.7403 12.9 36.0003 10.68 36.0003C8.46 36.0003 7.22 36.7403 6.3 37.2803C5.56 37.7403 5.12 38.0003 4 38.0003V42.0003C6.22 42.0003 7.46 41.2603 8.38 40.7203C9.12 40.2603 9.58 40.0003 10.68 40.0003C11.78 40.0003 12.24 40.2603 12.98 40.7203C13.88 41.2603 15.12 42.0003 17.34 42.0003C19.56 42.0003 20.8 41.2603 21.72 40.7203C22.46 40.2603 22.9 40.0003 24.02 40.0003C25.12 40.0003 25.58 40.2803 26.32 40.7203C27.22 41.2603 28.46 42.0003 30.68 42.0003C32.9 42.0003 34.12 41.2603 35.04 40.7203C35.78 40.2603 36.22 40.0003 37.34 40.0003C38.44 40.0003 38.9 40.2803 39.64 40.7203C40.54 41.2603 41.78 42.0003 44 42.0003V38.0003C42.88 38.0003 42.44 37.7403 41.7 37.2803C40.8 36.7403 39.56 36.0003 37.34 36.0003Z" fill="black"/>
<path id="Vector_2" d="M33 16C35.7614 16 38 13.7614 38 11C38 8.23858 35.7614 6 33 6C30.2386 6 28 8.23858 28 11C28 13.7614 30.2386 16 33 16Z" fill="black"/>
</g>
<defs>
<clipPath id="clip0_0_7173">
<rect width="48" height="48" fill="white"/>
</clipPath>
</defs>
</svg>
